<svg cache-id="750d7a66bea1480db96f4be48984569a" id="eD47msZIHbp1" xmlns="http://www.w3.org/2000/svg" xmlns:xlink="http://www.w3.org/1999/xlink" viewBox="0 0 300 300" shape-rendering="geometricPrecision" text-rendering="geometricPrecision"><defs><linearGradient id="eD47msZIHbp3-fill" x1="0" y1="0.5" x2="1" y2="0.5" spreadMethod="pad" gradientUnits="objectBoundingBox" gradientTransform="translate(0 0)"><stop id="eD47msZIHbp3-fill-0" offset="0%" stop-color="#31fffa"/><stop id="eD47msZIHbp3-fill-1" offset="100%" stop-color="#6698ff"/></linearGradient><linearGradient id="eD47msZIHbp4-fill" x1="0" y1="0.5" x2="1" y2="0.5" spreadMethod="pad" gradientUnits="objectBoundingBox" gradientTransform="translate(0 0)"><stop id="eD47msZIHbp4-fill-0" offset="0%" stop-color="#f6c5ff"/><stop id="eD47msZIHbp4-fill-1" offset="100%" stop-color="#d471ff"/></linearGradient><linearGradient id="eD47msZIHbp5-fill" x1="0" y1="0.5" x2="1" y2="0.5" spreadMethod="pad" gradientUnits="objectBoundingBox" gradientTransform="translate(0 0)"><stop id="eD47msZIHbp5-fill-0" offset="0%" stop-color="#f6c5ff"/><stop id="eD47msZIHbp5-fill-1" offset="100%" stop-color="#cb5cff"/></linearGradient><linearGradient id="eD47msZIHbp6-fill" x1="0" y1="0.5" x2="1" y2="0.5" spreadMethod="pad" gradientUnits="objectBoundingBox" gradientTransform="translate(0 0)"><stop id="eD47msZIHbp6-fill-0" offset="0%" stop-color="#3cebfb"/><stop id="eD47msZIHbp6-fill-1" offset="100%" stop-color="#4cccfd"/></linearGradient></defs><g transform="matrix(1.3 0 0 1.3-45-45)"><path d="M70,20L80,30v40L70,80h-20v20l30,30v70l20-20v-60L80,100l20-20v-60L80,0h-60L0,20v180l20-20v-150L30,20h40Z" transform="translate(80 35)" fill="url(#eD47msZIHbp3-fill)" stroke-width="0.6"/><path d="M240.116334,69.983181v20.032166L190,90l-10.651945,9.758149L180,140l10,10l50.084904.032166v20L180,170l-20-20v-60l20-20l60.116334-.016819Z" transform="translate(-50 5.016819)" fill="url(#eD47msZIHbp4-fill)" stroke-width="0.6"/><path d="M160,190l20,20v20l10,10h40l10-10v-160l20,20v150l-20,20h-60l-20-20v-50Z" transform="translate(-50 5)" fill="url(#eD47msZIHbp5-fill)" stroke-width="0.6"/><path d="M29.924904,229.987287v20l30.13295-.007029v-20l-30.13295.007029Z" transform="translate(70-115)" fill="url(#eD47msZIHbp6-fill)" stroke-width="0.6"/></g></svg>
