<svg id="e1nZq5aji871" xmlns="http://www.w3.org/2000/svg" xmlns:xlink="http://www.w3.org/1999/xlink" viewBox="0 0 300 300" shape-rendering="geometricPrecision" text-rendering="geometricPrecision"><defs><linearGradient id="e1nZq5aji873-fill" x1="0" y1="0.5" x2="1" y2="0.5" spreadMethod="pad" gradientUnits="objectBoundingBox" gradientTransform="translate(0 0)"><stop id="e1nZq5aji873-fill-0" offset="0%" stop-color="#31fffa"/><stop id="e1nZq5aji873-fill-1" offset="100%" stop-color="#6698ff"/></linearGradient><linearGradient id="e1nZq5aji874-fill" x1="0" y1="0.5" x2="1" y2="0.5" spreadMethod="pad" gradientUnits="objectBoundingBox" gradientTransform="translate(0 0)"><stop id="e1nZq5aji874-fill-0" offset="0%" stop-color="#f6c5ff"/><stop id="e1nZq5aji874-fill-1" offset="100%" stop-color="#cb5cff"/></linearGradient><linearGradient id="e1nZq5aji875-fill" x1="0" y1="0.5" x2="1" y2="0.5" spreadMethod="pad" gradientUnits="objectBoundingBox" gradientTransform="translate(0 0)"><stop id="e1nZq5aji875-fill-0" offset="0%" stop-color="#39eefa"/><stop id="e1nZq5aji875-fill-1" offset="100%" stop-color="#4dc7fc"/></linearGradient><linearGradient id="e1nZq5aji876-fill" x1="0" y1="0.5" x2="1" y2="0.5" spreadMethod="pad" gradientUnits="objectBoundingBox" gradientTransform="translate(0 0)"><stop id="e1nZq5aji876-fill-0" offset="0%" stop-color="#f6c5ff"/><stop id="e1nZq5aji876-fill-1" offset="100%" stop-color="#cf66ff"/></linearGradient></defs><g transform="matrix(1.3 0 0 1.3-38.5-45)"><path d="M70,20L80,30v40L70,80h-20v20l30,30v70l20-20v-60L80,100l20-20v-60L80,0h-60L0,20v180l20-20v-150L30,20h40Z" transform="translate(80 35)" fill="url(#e1nZq5aji873-fill)" stroke-width="0.6"/><path d="M160,190l20,20v20l10,10h40l10-10v-160l20,20v150l-20,20h-60l-20-20v-50Z" transform="translate(-50 5)" fill="url(#e1nZq5aji874-fill)" stroke-width="0.6"/><path d="M29.924904,229.987287v20l30.13295-.007029v-20l-30.13295.007029Z" transform="matrix(1.250152 0 0 1 58.74316-115)" fill="url(#e1nZq5aji875-fill)" stroke-width="0.6"/><path d="M413.072296,109.992327l-10-10h-60.796l-19.204,19.999999v60.032165l19.204,19.967834l70.796-.007673v-20l-61.194.007673-9.602-9.992327-.625998-40.249524l10.227998-9.742802l61.194-.02302v-9.992325Z" transform="translate(-213.072296-24.992327)" fill="url(#e1nZq5aji876-fill)" stroke-width="0.6"/></g></svg>
