<?xml version="1.0" standalone="no"?>
<!DOCTYPE svg PUBLIC "-//W3C//DTD SVG 20010904//EN"
 "http://www.w3.org/TR/2001/REC-SVG-20010904/DTD/svg10.dtd">
<svg version="1.0" xmlns="http://www.w3.org/2000/svg"
 width="512.000000pt" height="512.000000pt" viewBox="0 0 512.000000 512.000000"
 preserveAspectRatio="xMidYMid meet">

<g transform="translate(0.000000,512.000000) scale(0.100000,-0.100000)"
fill="#000000" stroke="none">
<path d="M1560 4895 c-553 -251 -994 -692 -1241 -1239 -249 -551 -286 -1179
-102 -1758 239 -757 838 -1356 1600 -1602 253 -81 485 -116 768 -116 361 0
670 63 992 200 297 128 537 292 773 529 216 217 352 408 481 676 68 141 156
386 179 502 11 55 11 65 -4 88 -22 33 -58 47 -90 35 -14 -5 -58 -54 -100 -108
-490 -648 -1284 -949 -2076 -787 -398 81 -754 272 -1043 560 -304 303 -490
665 -574 1115 -25 135 -25 515 0 650 56 302 156 557 311 795 71 108 140 192
246 302 78 79 90 96 90 125 0 48 -31 78 -78 77 -21 0 -78 -19 -132 -44z m-56
-167 c-5 -7 -30 -40 -58 -73 -237 -285 -411 -713 -456 -1120 -60 -546 114
-1134 465 -1570 83 -104 239 -260 340 -340 403 -320 933 -493 1445 -472 585
25 1112 264 1509 683 50 53 91 93 91 90 0 -22 -81 -219 -132 -320 -114 -228
-235 -400 -411 -582 -351 -365 -802 -605 -1307 -694 -156 -28 -503 -39 -661
-21 -810 92 -1514 581 -1864 1296 -110 225 -183 457 -221 705 -25 160 -25 510
0 670 113 729 528 1333 1171 1707 101 59 99 58 89 41z"/>
</g>
</svg>
