<?xml version="1.0" standalone="no"?>
<!DOCTYPE svg PUBLIC "-//W3C//DTD SVG 20010904//EN"
 "http://www.w3.org/TR/2001/REC-SVG-20010904/DTD/svg10.dtd">
<svg version="1.0" xmlns="http://www.w3.org/2000/svg"
 width="512.000000pt" height="512.000000pt" viewBox="0 0 512.000000 512.000000"
 preserveAspectRatio="xMidYMid meet">

<g transform="translate(0.000000,512.000000) scale(0.100000,-0.100000)"
fill="#000000" stroke="none">
<path d="M1815 5086 c-571 -188 -1061 -564 -1389 -1068 -283 -434 -433 -980
-413 -1498 11 -278 47 -480 133 -741 209 -634 670 -1173 1269 -1485 263 -137
540 -225 850 -270 147 -22 522 -25 665 -6 591 79 1108 330 1516 737 149 149
233 250 345 419 171 257 329 625 329 767 0 51 -4 63 -31 94 -65 74 -147 71
-242 -8 -157 -133 -304 -229 -464 -303 -894 -419 -1957 -122 -2505 701 -424
636 -445 1466 -53 2118 65 109 120 185 211 293 74 88 83 158 27 224 -58 69
-102 74 -248 26z m-349 -562 c-79 -162 -148 -365 -186 -553 -58 -289 -54 -639
10 -936 55 -254 184 -558 325 -770 380 -569 978 -940 1645 -1020 138 -17 394
-19 528 -4 253 28 532 109 752 219 46 22 84 39 86 37 7 -6 -98 -170 -170 -267
-85 -114 -281 -318 -391 -407 -269 -217 -630 -391 -955 -462 -229 -49 -515
-65 -738 -40 -425 46 -851 221 -1185 486 -477 379 -791 949 -856 1555 -6 54
-11 167 -11 252 0 493 158 966 458 1370 86 115 282 320 391 408 109 87 329
233 338 224 2 -2 -16 -43 -41 -92z"/>
<path d="M4407 4896 c-80 -29 -106 -80 -107 -208 l0 -88 -90 0 c-72 0 -99 -4
-131 -20 -52 -27 -79 -72 -79 -134 0 -106 69 -156 213 -156 l87 0 0 -87 c0
-143 51 -213 155 -213 106 0 154 67 155 213 l0 87 88 0 c71 0 96 4 132 23 104
52 113 191 18 259 -28 20 -47 23 -135 26 l-101 4 -4 101 c-3 88 -6 107 -26
135 -41 57 -112 80 -175 58z"/>
<path d="M3162 3984 c-44 -23 -55 -40 -161 -251 l-91 -183 -200 -100 c-125
-63 -205 -109 -215 -124 -40 -61 -38 -134 6 -190 13 -17 96 -64 217 -125 l195
-98 101 -199 c114 -224 131 -244 216 -244 85 0 102 20 216 244 l101 199 199
101 c159 81 203 108 221 135 36 53 39 93 12 148 -24 47 -27 50 -227 151 l-202
102 -100 199 c-75 150 -107 205 -131 222 -41 29 -113 35 -157 13z m99 -546
c43 -93 70 -120 158 -163 l82 -39 -73 -37 c-91 -46 -115 -69 -157 -158 -19
-39 -37 -71 -40 -71 -3 0 -26 39 -51 87 -45 87 -45 88 -122 128 -43 23 -80 44
-84 48 -3 3 31 24 75 47 86 43 111 70 155 168 11 23 22 42 26 42 4 0 17 -23
31 -52z"/>
</g>
</svg>
