<?xml version="1.0" standalone="no"?>
<!DOCTYPE svg PUBLIC "-//W3C//DTD SVG 20010904//EN"
 "http://www.w3.org/TR/2001/REC-SVG-20010904/DTD/svg10.dtd">
<svg version="1.0" xmlns="http://www.w3.org/2000/svg"
 width="512.000000pt" height="512.000000pt" viewBox="0 0 512.000000 512.000000"
 preserveAspectRatio="xMidYMid meet">

<g transform="translate(0.000000,512.000000) scale(0.100000,-0.100000)"
fill="#000000" stroke="none">
<path d="M2041 4724 c-218 -68 -419 -172 -661 -341 -67 -47 -217 -183 -294
-267 -405 -440 -613 -996 -593 -1581 7 -193 25 -328 62 -476 104 -411 314
-773 616 -1064 179 -172 352 -293 574 -400 221 -107 435 -174 665 -206 124
-18 466 -18 590 0 269 38 588 150 820 287 285 168 575 455 752 744 97 159 105
194 53 246 -35 35 -84 32 -154 -10 -171 -104 -383 -187 -596 -233 -121 -26
-146 -28 -355 -28 -208 0 -235 2 -357 28 -384 81 -693 246 -953 507 -63 63
-126 130 -140 149 -14 18 -34 45 -46 60 -153 193 -288 504 -340 779 -25 135
-30 450 -10 592 55 378 222 734 470 998 71 75 86 99 86 136 0 85 -74 116 -189
80z m-263 -351 c-16 -19 -45 -69 -101 -173 -102 -190 -191 -480 -217 -709 -12
-109 -13 -359 0 -476 59 -555 379 -1105 836 -1436 74 -53 277 -179 289 -179 3
0 29 -12 58 -26 237 -117 579 -194 867 -194 205 0 527 55 680 116 23 9 43 14
46 11 8 -8 -181 -202 -265 -271 -78 -64 -88 -71 -181 -133 -598 -397 -1381
-434 -2020 -96 -545 289 -917 785 -1046 1398 -23 110 -28 162 -32 332 -5 224
5 337 44 508 130 573 514 1074 1029 1343 26 14 32 7 13 -15z"/>
</g>
</svg>
